<?xml version="1.0" encoding="iso-8859-1"?>
<!-- Generator: Adobe Illustrator 19.0.0, SVG Export Plug-In . SVG Version: 6.00 Build 0)  -->
<svg version="1.1" id="Capa_1" xmlns="http://www.w3.org/2000/svg" xmlns:xlink="http://www.w3.org/1999/xlink" x="0px" y="0px"
	 viewBox="0 0 507.982 507.982" style="enable-background:new 0 0 507.982 507.982;" xml:space="preserve">
<g>
	<g>
		<path d="M482.4,156.691h-10.7c-5.3,0-9.6-4.3-9.6-9.6v-44.6c0-14.4-11.7-26-26-26H186.5c-5.3,0-9.6-4.3-9.6-9.6v-17.9
			c0-14.4-11.7-26-26-26H26c-14.4,0-26,11.7-26,26v410c0,14.4,11.7,26,26,26h397.3c11.1,0,21-7.1,24.6-17.6l59.3-276.8
			C509.7,182.791,507.4,156.691,482.4,156.691z M16.4,48.991c0-5.3,4.3-9.6,9.6-9.6h124.8c5.3,0,9.6,4.3,9.6,9.6v17.8
			c0,14.4,11.7,26,26,26H436c5.3,0,9.6,4.3,9.6,9.6v44.6c0,3.4,0.7,6.6,1.9,9.6H92.2c-11.1,0-21,7.1-24.6,17.6l-51.2,232.3V48.991z
			 M491.5,185.791l-59.2,276.7c-1.4,3.7-5,6.1-9,6.1H26c-2.3,0-4.4-0.9-6-2.3l63.3-287.2c1.4-3.7,5-6.1,9-6.1h390.2
			C492.2,173.091,492.6,182.791,491.5,185.791z"/>
	</g>
</g>
<g>
</g>
<g>
</g>
<g>
</g>
<g>
</g>
<g>
</g>
<g>
</g>
<g>
</g>
<g>
</g>
<g>
</g>
<g>
</g>
<g>
</g>
<g>
</g>
<g>
</g>
<g>
</g>
<g>
</g>
</svg>
